<svg width="197" height="62" viewBox="0 0 197 62" fill="none" xmlns="http://www.w3.org/2000/svg">
<path d="M6.448 1.535L4.758 1.496C4.771 1.717 4.745 2.029 4.732 2.276C4.706 2.497 4.68 2.731 4.654 2.978C4.485 2.978 4.316 2.978 4.134 2.978C3.341 2.978 2.197 2.874 1.742 2.796L1.781 4.304C2.392 4.33 3.406 4.382 4.082 4.382C4.225 4.382 4.355 4.382 4.498 4.382C4.446 4.915 4.407 5.461 4.381 6.02C2.561 6.878 1.183 8.62 1.183 10.297C1.183 11.61 1.989 12.182 2.938 12.182C3.627 12.182 4.316 11.974 4.953 11.662C5.005 11.844 5.07 12.026 5.122 12.195L6.617 11.74C6.513 11.428 6.409 11.103 6.318 10.778C7.306 9.959 8.346 8.594 9.048 6.826C9.945 7.177 10.4 7.866 10.4 8.646C10.4 9.92 9.386 11.194 6.877 11.467L7.735 12.832C10.933 12.351 12.012 10.57 12.012 8.724C12.012 7.216 11.011 6.033 9.503 5.539C9.581 5.292 9.685 5.019 9.737 4.876L8.151 4.499C8.138 4.694 8.086 5.019 8.034 5.279C7.956 5.279 7.878 5.279 7.8 5.279C7.163 5.279 6.487 5.37 5.863 5.513C5.876 5.123 5.915 4.72 5.954 4.33C7.553 4.265 9.295 4.109 10.569 3.875L10.556 2.367C9.126 2.705 7.722 2.874 6.136 2.939C6.175 2.679 6.227 2.445 6.266 2.224C6.318 2.029 6.37 1.795 6.448 1.535ZM2.717 9.959C2.717 9.218 3.367 8.23 4.342 7.567C4.368 8.464 4.472 9.361 4.615 10.167C4.147 10.44 3.679 10.596 3.315 10.596C2.899 10.596 2.717 10.375 2.717 9.959ZM5.811 6.93V6.891C6.318 6.735 6.916 6.618 7.605 6.605C7.163 7.658 6.578 8.451 5.967 9.088C5.863 8.438 5.811 7.723 5.811 6.93ZM21.216 1.535L19.422 1.353C19.396 2.029 19.253 2.809 19.071 3.524C18.668 3.563 18.278 3.576 17.888 3.576C17.407 3.576 16.718 3.55 16.159 3.485L16.276 4.993C16.835 5.032 17.368 5.045 17.901 5.045C18.122 5.045 18.343 5.045 18.577 5.032C18.005 6.436 16.952 8.347 15.925 9.621L17.498 10.427C18.551 8.958 19.656 6.683 20.28 4.863C21.151 4.733 21.957 4.564 22.555 4.408L22.503 2.9C21.996 3.056 21.385 3.199 20.748 3.316C20.943 2.614 21.112 1.951 21.216 1.535ZM20.54 10.531C20.54 10.076 21.021 9.738 21.775 9.738C22.139 9.738 22.49 9.79 22.828 9.868C22.828 9.972 22.828 10.05 22.828 10.128C22.828 10.843 22.555 11.337 21.658 11.337C20.943 11.337 20.54 11.012 20.54 10.531ZM24.258 5.578H22.633C22.659 6.371 22.724 7.528 22.776 8.49C22.477 8.464 22.191 8.438 21.879 8.438C20.072 8.438 19.006 9.413 19.006 10.687C19.006 12.117 20.28 12.832 21.892 12.832C23.738 12.832 24.401 11.896 24.401 10.687C24.401 10.648 24.401 10.596 24.401 10.557C25.116 10.986 25.701 11.532 26.156 11.948L27.027 10.557C26.364 9.959 25.454 9.309 24.336 8.893C24.31 8.243 24.271 7.619 24.258 7.242C24.245 6.67 24.219 6.124 24.258 5.578ZM26.494 6.267L27.417 4.902C26.754 4.421 25.142 3.537 24.206 3.134L23.374 4.421C24.258 4.824 25.74 5.669 26.494 6.267ZM37.791 8.828L36.244 8.672C36.14 9.192 36.01 9.816 36.01 10.414C36.01 11.727 37.193 12.481 39.377 12.481C40.417 12.481 41.301 12.39 42.029 12.299L42.094 10.635C41.158 10.804 40.261 10.908 39.39 10.908C37.999 10.908 37.609 10.479 37.609 9.907C37.609 9.621 37.687 9.192 37.791 8.828ZM36.322 1.626L34.333 1.47C34.372 1.769 34.346 2.302 34.294 2.783C34.268 2.991 34.229 3.238 34.177 3.524C33.774 3.55 33.384 3.563 33.007 3.563C32.474 3.563 32.032 3.537 31.369 3.459L31.408 5.084C31.863 5.11 32.357 5.136 32.981 5.136C33.254 5.136 33.54 5.123 33.839 5.11C33.761 5.487 33.657 5.851 33.566 6.202C33.085 8.022 32.097 10.752 31.317 12.052L33.124 12.663C33.852 11.116 34.723 8.464 35.191 6.644C35.334 6.111 35.464 5.539 35.581 4.98C36.452 4.876 37.336 4.733 38.116 4.551V2.926C37.401 3.095 36.673 3.238 35.945 3.342C35.984 3.16 36.023 2.991 36.049 2.848C36.101 2.562 36.218 1.977 36.322 1.626ZM37.089 5.552V7.073C37.908 6.982 38.714 6.943 39.598 6.943C40.391 6.943 41.184 7.021 41.834 7.099L41.873 5.539C41.106 5.461 40.326 5.422 39.585 5.422C38.753 5.422 37.817 5.487 37.089 5.552ZM57.291 7.424C57.291 4.59 55.263 2.354 52.039 2.354C48.672 2.354 46.072 4.915 46.072 7.918C46.072 10.115 47.268 11.701 48.711 11.701C50.128 11.701 51.246 10.089 52.026 7.463C52.403 6.241 52.624 5.045 52.806 3.94C54.561 4.239 55.536 5.578 55.536 7.372C55.536 9.27 54.236 10.466 52.572 10.856C52.221 10.934 51.857 11.012 51.363 11.064L52.338 12.611C55.614 12.104 57.291 10.167 57.291 7.424ZM47.736 7.749C47.736 6.319 48.893 4.421 51.038 3.979C50.895 5.058 50.648 6.163 50.349 7.125C49.816 8.88 49.309 9.699 48.763 9.699C48.256 9.699 47.736 9.062 47.736 7.749ZM61.126 6.943L61.945 8.581C63.544 8.113 65.195 7.411 66.534 6.709V10.869C66.534 11.441 66.495 12.26 66.443 12.572H68.497C68.406 12.247 68.38 11.441 68.38 10.869V5.617C69.641 4.785 70.889 3.771 71.877 2.796L70.473 1.457C69.628 2.484 68.146 3.784 66.807 4.616C65.364 5.5 63.453 6.345 61.126 6.943ZM78.533 2.12L77.311 3.42C78.26 4.083 79.885 5.5 80.561 6.228L81.887 4.876C81.133 4.083 79.443 2.731 78.533 2.12ZM76.908 10.778L78 12.494C79.833 12.182 81.51 11.454 82.823 10.661C84.916 9.4 86.645 7.606 87.633 5.851L86.619 4.018C85.8 5.773 84.11 7.762 81.887 9.075C80.626 9.829 78.936 10.492 76.908 10.778ZM101.643 3.342L100.369 2.523C100.018 2.614 99.6024 2.627 99.3424 2.627H93.3364C92.9074 2.627 92.1664 2.562 91.7764 2.523V4.356C92.1144 4.33 92.7384 4.304 93.3234 4.304H99.3814C99.2124 5.409 98.7184 6.891 97.8604 7.97C96.8074 9.283 95.3384 10.414 92.7644 11.025L94.1814 12.572C96.4954 11.831 98.2244 10.544 99.4074 8.984C100.486 7.541 101.058 5.526 101.357 4.252C101.422 3.979 101.526 3.602 101.643 3.342ZM108.065 2.029V3.706C108.442 3.68 109.001 3.667 109.417 3.667H114.396C114.864 3.667 115.475 3.68 115.826 3.706V2.029C115.462 2.081 114.825 2.094 114.422 2.094H109.417C108.975 2.094 108.429 2.081 108.065 2.029ZM116.918 5.799L115.761 5.084C115.579 5.162 115.228 5.214 114.812 5.214H108.377C107.974 5.214 107.415 5.175 106.869 5.136V6.826C107.415 6.774 108.065 6.761 108.377 6.761H114.656C114.422 7.489 114.019 8.295 113.317 9.01C112.329 10.024 110.769 10.882 108.819 11.285L110.106 12.754C111.77 12.286 113.434 11.402 114.747 9.946C115.722 8.867 116.281 7.606 116.671 6.345C116.723 6.202 116.827 5.968 116.918 5.799ZM127.266 2.237H124.874V1.08H123.379V2.237H121V3.576H127.266V2.237ZM125.329 9.439V11.155H122.898V9.439H125.329ZM121.468 13.144H122.898V12.494H125.329V13.092H126.837V8.1H121.468V13.144ZM125.212 3.615C125.108 4.213 124.874 5.032 124.679 5.578L125.732 5.851H122.326L123.548 5.565C123.496 5.032 123.288 4.252 123.015 3.667L121.754 3.927C121.975 4.525 122.17 5.331 122.209 5.851H120.727V7.255H127.409V5.851H125.901C126.122 5.344 126.395 4.642 126.668 3.927L125.212 3.615ZM131.712 1.678L131.478 1.73H127.812V13.131H129.32V3.186H130.893C130.581 4.174 130.165 5.5 129.788 6.423C130.828 7.437 131.114 8.373 131.114 9.075C131.114 9.517 131.036 9.816 130.802 9.959C130.672 10.024 130.503 10.063 130.321 10.063C130.126 10.076 129.879 10.063 129.593 10.05C129.84 10.479 129.97 11.142 129.97 11.558C130.334 11.571 130.711 11.571 131.01 11.532C131.335 11.48 131.647 11.376 131.894 11.207C132.388 10.856 132.596 10.219 132.596 9.27C132.596 8.412 132.401 7.398 131.296 6.228C131.816 5.123 132.388 3.628 132.843 2.38L131.712 1.678ZM139.902 2.757V3.433H137.926V2.757H139.902ZM137.926 5.279V4.538H139.902V5.279H137.926ZM141.345 1.509H136.392V13.131H137.926V6.514H141.345V1.509ZM143.724 5.305V4.538H145.778V5.305H143.724ZM145.778 2.757V3.433H143.724V2.757H145.778ZM147.338 1.509H142.255V6.553H145.778V11.233C145.778 11.48 145.687 11.571 145.414 11.571C145.141 11.571 144.179 11.584 143.36 11.532C143.594 11.948 143.841 12.676 143.906 13.118C145.167 13.118 146.025 13.092 146.584 12.832C147.156 12.598 147.338 12.143 147.338 11.259V1.509ZM156.23 2.913V4.577C157.868 4.733 160.221 4.72 161.82 4.577V2.9C160.416 3.069 157.829 3.134 156.23 2.913ZM157.27 8.464L155.775 8.321C155.632 8.984 155.554 9.504 155.554 10.011C155.554 11.35 156.633 12.143 158.869 12.143C160.338 12.143 161.378 12.052 162.223 11.896L162.197 10.141C161.053 10.375 160.091 10.479 158.934 10.479C157.608 10.479 157.114 10.128 157.114 9.556C157.114 9.205 157.166 8.893 157.27 8.464ZM154.228 2.042L152.408 1.886C152.395 2.302 152.317 2.796 152.278 3.16C152.135 4.161 151.732 6.358 151.732 8.308C151.732 10.076 151.979 11.662 152.239 12.559L153.747 12.455C153.734 12.273 153.721 12.065 153.721 11.922C153.721 11.792 153.747 11.506 153.786 11.311C153.929 10.622 154.358 9.205 154.722 8.126L153.916 7.489C153.734 7.918 153.526 8.373 153.331 8.815C153.292 8.555 153.279 8.217 153.279 7.97C153.279 6.67 153.734 4.07 153.903 3.199C153.955 2.965 154.124 2.315 154.228 2.042Z" fill="#002947"/>
<g clip-path="url(#clip0)">
<path d="M155.55 33.2844C155.641 33.4679 155.731 33.6514 155.913 33.7431C156.094 33.9266 156.185 34.0184 156.457 34.1101C156.638 34.2019 156.82 34.2936 157.092 34.3853C157.364 34.4771 157.545 34.4771 157.817 34.4771C157.999 34.4771 158.18 34.4771 158.362 34.3853C158.543 34.3853 158.724 34.2936 158.815 34.2019C158.906 34.1101 159.087 34.0184 159.178 33.9266C159.269 33.8349 159.269 33.6514 159.269 33.5597C159.269 33.4679 159.269 33.3762 159.178 33.2844C159.178 33.1927 159.087 33.1009 158.996 33.0092C158.906 32.9174 158.724 32.9174 158.543 32.8257C158.362 32.734 158.18 32.734 157.908 32.734C157.455 32.734 157.092 32.6422 156.82 32.5505C156.547 32.4587 156.275 32.2752 156.094 32.0918C155.913 31.9083 155.731 31.7248 155.731 31.5413C155.641 31.3578 155.641 31.0826 155.641 30.8074C155.641 30.5321 155.731 30.2569 155.822 29.9817C155.913 29.7064 156.094 29.523 156.366 29.3395C156.547 29.156 156.82 28.9725 157.182 28.8808C157.455 28.789 157.817 28.6973 158.18 28.6973C158.361 28.6973 158.634 28.6973 158.815 28.6973C158.996 28.6973 159.178 28.789 159.359 28.789C159.541 28.789 159.631 28.8808 159.813 28.9725C159.903 29.0642 160.085 29.0642 160.176 29.156L160.085 30.6239C159.994 30.5321 159.903 30.3486 159.813 30.2569C159.722 30.1652 159.541 30.0734 159.359 29.9817C159.178 29.8899 158.996 29.8899 158.815 29.7982C158.634 29.7982 158.452 29.7064 158.271 29.7064C158.089 29.7064 157.908 29.7064 157.817 29.7982C157.636 29.7982 157.545 29.8899 157.455 29.9817C157.001 30.2569 156.91 30.3486 156.91 30.4404C156.82 30.5321 156.82 30.6239 156.82 30.7156C156.82 30.8074 156.82 30.8991 156.91 30.9908C156.91 31.0826 157.001 31.1743 157.182 31.2661C157.273 31.3578 157.455 31.3578 157.636 31.4496C157.817 31.5413 158.089 31.5413 158.362 31.633C158.724 31.7248 159.087 31.7248 159.359 31.9083C159.631 32 159.903 32.1835 160.085 32.2752C160.266 32.4587 160.357 32.6422 160.448 32.8257C160.538 33.0092 160.538 33.2844 160.538 33.5597C160.538 33.8349 160.538 34.1101 160.448 34.2936C160.357 34.4771 160.266 34.6606 160.176 34.8441C160.085 35.0275 159.903 35.1193 159.722 35.3028C159.541 35.3945 159.359 35.4863 159.178 35.578C158.996 35.6697 158.724 35.6697 158.543 35.7615C158.362 35.7615 158.089 35.8532 157.908 35.8532C157.455 35.8532 157.001 35.7615 156.638 35.6697C156.275 35.578 155.913 35.3945 155.641 35.211L155.55 33.2844Z" fill="#002947"/>
<path d="M161.354 33.0091C161.354 32.6422 161.445 32.2752 161.536 31.9082C161.627 31.5413 161.808 31.266 162.08 30.9908C162.352 30.7156 162.624 30.5321 162.987 30.3486C163.35 30.1651 163.713 30.1651 164.166 30.1651C164.62 30.1651 164.982 30.2569 165.255 30.3486C165.617 30.4403 165.89 30.7156 166.071 30.8991C166.252 31.1743 166.434 31.4495 166.615 31.7247C166.706 32.0917 166.796 32.3669 166.796 32.8257C166.796 33.1926 166.706 33.5596 166.615 33.9266C166.524 34.2935 166.343 34.5688 166.071 34.844C165.799 35.1192 165.527 35.3027 165.255 35.4862C164.892 35.6697 164.529 35.6697 164.166 35.6697C163.713 35.6697 163.35 35.578 162.987 35.4862C162.624 35.3027 162.352 35.1192 162.171 34.9358C161.989 34.6605 161.808 34.3853 161.627 34.1101C161.445 33.7431 161.354 33.3761 161.354 33.0091ZM162.624 32.9174C162.624 33.1926 162.624 33.3761 162.715 33.5596C162.806 33.7431 162.896 33.9266 162.987 34.0183C163.078 34.1101 163.259 34.2935 163.441 34.2935C163.622 34.3853 163.803 34.3853 164.075 34.3853C164.257 34.3853 164.529 34.3853 164.62 34.2935C164.801 34.2018 164.892 34.1101 165.073 34.0183C165.164 33.9266 165.255 33.7431 165.345 33.5596C165.436 33.3761 165.436 33.1926 165.436 32.9174C165.436 32.7339 165.436 32.4587 165.345 32.2752C165.255 32.0917 165.164 31.9082 165.073 31.8165C164.982 31.7247 164.801 31.5413 164.62 31.4495C164.438 31.3578 164.257 31.3578 163.985 31.3578C163.713 31.3578 163.531 31.3578 163.35 31.4495C163.169 31.5413 162.987 31.633 162.896 31.8165C162.806 32 162.715 32.0917 162.624 32.2752C162.624 32.5504 162.624 32.7339 162.624 32.9174Z" fill="#002947"/>
<path d="M168.067 32.0917H167.432V30.8991H168.067V30.8073C168.067 30.4404 168.157 30.0734 168.248 29.7064C168.339 29.3394 168.52 29.0642 168.701 28.8807C168.883 28.6055 169.155 28.422 169.427 28.3303C169.699 28.2385 170.062 28.1468 170.425 28.1468C170.515 28.1468 170.606 28.1468 170.697 28.1468C170.788 28.1468 170.878 28.1468 170.878 28.1468L171.06 29.4312C170.969 29.3394 170.969 29.3394 170.788 29.3394C170.697 29.3394 170.606 29.2477 170.425 29.2477C170.243 29.2477 170.062 29.2477 169.971 29.3394C169.79 29.4312 169.699 29.5229 169.608 29.6147C169.518 29.7064 169.427 29.8899 169.427 30.0734C169.336 30.2569 169.336 30.4404 169.336 30.6238V30.8991H170.697C170.697 30.8991 170.697 30.9908 170.697 31.1743C170.697 31.266 170.697 31.4495 170.697 31.7248V32.0917H169.427V35.578H168.248V32.0917H168.067Z" fill="#002947"/>
<path d="M172.147 31.5413H171.422C171.422 31.4495 171.422 31.4495 171.422 31.3578C171.422 31.2661 171.422 31.2661 171.422 31.1743V30.6239C171.422 30.5321 171.422 30.4404 171.422 30.4404C171.422 30.3486 171.422 30.3486 171.422 30.3486H172.147V28.8807H173.327V30.3486H174.596V31.5413H173.327V33.5596C173.327 33.7431 173.327 33.9266 173.417 34.0184C173.508 34.1101 173.508 34.2018 173.599 34.2936C173.689 34.3853 173.78 34.3853 173.871 34.4771C173.961 34.4771 174.052 34.4771 174.234 34.4771C174.415 34.4771 174.596 34.4771 174.778 34.3853C174.959 34.2936 175.05 34.2018 175.141 34.1101L174.959 35.3945C174.959 35.3945 174.868 35.4862 174.778 35.4862C174.687 35.4862 174.596 35.578 174.506 35.578C174.415 35.578 174.324 35.578 174.234 35.6697C174.143 35.6697 174.052 35.6697 173.961 35.6697C173.689 35.6697 173.508 35.6697 173.236 35.578C173.054 35.4862 172.873 35.3945 172.692 35.211C172.51 35.0275 172.42 34.844 172.329 34.6606C172.238 34.3853 172.238 34.1101 172.238 33.8349V31.5413H172.147Z" fill="#002947"/>
<path d="M175.413 30.3486H176.864L177.681 33.8348L178.497 30.3486H179.585L180.492 33.8348L181.399 30.3486H182.76L181.127 35.5779H179.857L179.041 32.6422L178.315 35.5779H177.046L175.413 30.3486Z" fill="#002947"/>
<path d="M183.032 33.9266C183.032 33.7431 183.123 33.4679 183.214 33.2844C183.304 33.1009 183.486 32.9174 183.667 32.734C183.849 32.5505 184.121 32.4587 184.483 32.367C184.846 32.2752 185.209 32.1835 185.663 32.1835H185.753H185.844H186.116C186.116 32 186.116 31.9083 186.025 31.7248C185.935 31.633 185.935 31.5413 185.844 31.4496C185.753 31.3578 185.663 31.3578 185.481 31.2661C185.39 31.2661 185.209 31.2661 185.028 31.2661C184.937 31.2661 184.756 31.2661 184.574 31.2661C184.393 31.2661 184.302 31.3578 184.121 31.3578C183.939 31.4496 183.849 31.4496 183.758 31.5413C183.667 31.633 183.576 31.633 183.486 31.7248L183.304 30.5321C183.576 30.3486 183.849 30.2569 184.211 30.1652C184.574 30.0734 184.846 30.0734 185.209 30.0734C185.572 30.0734 185.844 30.1652 186.116 30.2569C186.388 30.3486 186.57 30.4404 186.751 30.6239C186.932 30.8074 187.023 30.9908 187.114 31.2661C187.204 31.5413 187.204 31.8165 187.204 32.0918V33.9266C187.204 34.1101 187.204 34.2936 187.295 34.4771C187.386 34.5688 187.477 34.6606 187.567 34.7523L186.66 35.578C186.479 35.4863 186.388 35.3945 186.297 35.211C186.116 35.3028 185.844 35.3945 185.663 35.3945C185.481 35.4863 185.209 35.4863 185.028 35.4863C184.665 35.4863 184.393 35.4863 184.121 35.3945C183.849 35.3028 183.667 35.211 183.486 35.0275C183.304 34.8441 183.123 34.6606 183.032 34.4771C183.123 34.4771 183.032 34.2019 183.032 33.9266ZM184.302 33.9266C184.302 34.1101 184.393 34.2936 184.574 34.4771C184.756 34.5688 185.028 34.6606 185.39 34.6606C185.663 34.6606 185.935 34.5688 186.116 34.4771C186.116 34.3853 186.116 34.2936 186.116 34.2019V33.2844C186.025 33.2844 186.025 33.2844 185.844 33.2844C185.753 33.2844 185.663 33.2844 185.572 33.2844C185.3 33.2844 185.118 33.2844 184.937 33.3762C184.756 33.3762 184.574 33.4679 184.483 33.5596C184.393 33.6514 184.302 33.7431 184.211 33.7431C184.302 33.7431 184.302 33.8349 184.302 33.9266Z" fill="#002947"/>
<path d="M188.655 30.3486H189.834V30.7156C189.925 30.6239 190.106 30.5321 190.288 30.4404C190.469 30.2569 190.651 30.2569 190.741 30.2569C190.832 30.2569 191.013 30.2569 191.104 30.2569C191.195 30.2569 191.376 30.3486 191.467 30.3486L191.376 31.7248C191.286 31.633 191.195 31.5413 191.104 31.4495C191.013 31.3578 190.832 31.3578 190.651 31.3578C190.469 31.3578 190.379 31.4495 190.197 31.5413C190.016 31.633 189.925 31.7248 189.834 31.9083V35.0275C189.834 35.211 189.834 35.3028 189.834 35.3945C189.834 35.4862 189.834 35.578 189.834 35.578H188.655V30.3486Z" fill="#002947"/>
<path d="M191.921 33.0092C191.921 32.6422 192.012 32.2752 192.102 31.9083C192.193 31.5413 192.465 31.2661 192.646 30.9908C192.919 30.7156 193.191 30.5321 193.553 30.4404C193.916 30.2569 194.279 30.2569 194.733 30.2569C195.095 30.2569 195.458 30.3486 195.73 30.4404C196.002 30.5321 196.274 30.7156 196.456 30.9908C196.637 31.1743 196.819 31.4495 196.909 31.7248C197 32 197.091 32.367 197.091 32.6422C197.091 32.7339 197.091 32.9174 197.091 33.0092C197.091 33.1009 197.091 33.1927 197.091 33.1927C197 33.1927 196.909 33.1927 196.728 33.2844C196.637 33.2844 196.456 33.2844 196.274 33.2844C196.093 33.2844 195.912 33.2844 195.73 33.2844C195.549 33.2844 195.277 33.2844 195.095 33.2844C195.005 33.2844 194.823 33.2844 194.642 33.2844C194.46 33.2844 194.279 33.2844 194.188 33.2844C194.007 33.2844 193.826 33.2844 193.735 33.2844C193.553 33.2844 193.463 33.2844 193.372 33.2844C193.463 33.6514 193.644 33.9266 194.007 34.1101C194.279 34.2936 194.733 34.3853 195.277 34.3853C195.458 34.3853 195.64 34.3853 195.821 34.2936C196.002 34.2936 196.184 34.2018 196.274 34.2018C196.456 34.1101 196.547 34.1101 196.637 34.0183C196.728 33.9266 196.819 33.9266 196.819 33.8349C196.819 34.0183 196.819 34.2018 196.819 34.3853C196.819 34.5688 196.819 34.844 196.728 35.1193C196.637 35.211 196.547 35.211 196.365 35.3028C196.274 35.3945 196.093 35.3945 195.912 35.3945C195.73 35.3945 195.64 35.4862 195.458 35.4862C195.277 35.4862 195.095 35.4862 195.005 35.4862C194.551 35.4862 194.188 35.3945 193.826 35.3028C193.463 35.211 193.191 35.0275 192.919 34.7523C192.646 34.4771 192.465 34.2018 192.284 33.9266C191.921 33.7431 191.921 33.3761 191.921 33.0092ZM193.191 32.2752C193.281 32.2752 193.372 32.2752 193.463 32.2752C193.553 32.2752 193.735 32.2752 193.826 32.2752C193.916 32.2752 194.098 32.2752 194.188 32.2752C194.279 32.2752 194.37 32.2752 194.46 32.2752C194.551 32.2752 194.642 32.2752 194.733 32.2752C194.823 32.2752 194.914 32.2752 195.095 32.2752C195.186 32.2752 195.277 32.2752 195.458 32.2752C195.549 32.2752 195.64 32.2752 195.73 32.2752C195.64 32 195.549 31.7248 195.367 31.5413C195.186 31.3578 194.914 31.2661 194.551 31.2661C194.37 31.2661 194.279 31.2661 194.098 31.3578C193.916 31.4495 193.826 31.4495 193.735 31.5413C193.644 31.633 193.553 31.7248 193.463 31.8165C193.372 32 193.281 32.1835 193.191 32.2752Z" fill="#002947"/>
<path d="M86.2549 37.5046L85.8014 40.4404C82.3548 40.7156 79.6338 43.5597 79.6338 47.1377V52.8257H76.7314V36.4955L79.6338 36.1285V40.2569C81.3571 38.5138 83.7153 37.5046 86.2549 37.5046Z" fill="#002947"/>
<path d="M98.4996 38.6056V40.8074C97.1391 39.3395 95.2344 38.4221 93.0576 38.4221C89.0668 38.4221 85.7109 41.7248 85.7109 45.8533C85.7109 49.89 88.9761 53.2845 93.0576 53.2845C95.2344 53.2845 97.1391 52.367 98.4996 50.8991V53.101H101.402V38.4221L98.4996 38.6056ZM93.0576 50.1652C90.6087 50.1652 88.6133 48.1468 88.6133 45.6698C88.6133 43.1927 90.6087 41.1744 93.0576 41.1744C95.5065 41.1744 97.5019 43.1927 97.5019 45.6698C97.5019 48.1468 95.5065 50.1652 93.0576 50.1652Z" fill="#002947"/>
<path d="M178.86 38.6056V40.8074C177.499 39.3395 175.595 38.4221 173.418 38.4221C169.427 38.4221 166.071 41.7248 166.071 45.8533C166.071 49.89 169.336 53.2845 173.418 53.2845C175.595 53.2845 177.499 52.367 178.86 50.8991V53.101H181.762V38.4221L178.86 38.6056ZM173.418 50.1652C170.969 50.1652 168.974 48.1468 168.974 45.6698C168.974 43.1927 170.969 41.1744 173.418 41.1744C175.867 41.1744 177.862 43.1927 177.862 45.6698C177.862 48.1468 175.867 50.1652 173.418 50.1652Z" fill="#002947"/>
<path d="M165.073 44.7523V52.8257H162.171V44.7523C162.171 42.6422 160.538 40.9908 158.452 40.9908C156.366 40.9908 154.733 42.6422 154.733 44.7523V52.8257H151.831V44.7523C151.831 42.6422 150.198 40.9908 148.112 40.9908C146.026 40.9908 144.394 42.6422 144.394 44.7523V52.8257H141.491V37.7798L144.394 37.4129V39.2477C145.482 38.5138 146.752 38.0551 148.112 38.0551C150.198 38.0551 152.103 39.0642 153.282 40.5321C154.461 38.9725 156.366 38.0551 158.452 38.0551C162.08 38.0551 165.073 41.0826 165.073 44.7523Z" fill="#002947"/>
<path d="M197 44.7523V52.8257H194.098V44.7523C194.098 42.6422 192.465 40.9908 190.379 40.9908C188.293 40.9908 186.66 42.6422 186.66 44.7523V52.8257H183.758V37.7798L186.66 37.3211V39.156C187.749 38.422 189.018 37.9633 190.379 37.9633C194.098 38.055 197 41.0826 197 44.7523Z" fill="#002947"/>
<path d="M114.372 38.3303V41.2661H109.474V52.8257H106.572V41.2661H103.397V38.3303H106.572V37.5964C106.572 34.1101 109.384 31.1743 112.74 30.9908L112.286 34.0184C110.653 34.3853 109.474 35.8532 109.384 37.5964V38.3303H114.372Z" fill="#002947"/>
<path d="M126.798 38.3303V41.2661H121.9V52.8257H118.998V41.2661H115.914V38.3303H118.998V35.8532L121.9 35.3945V38.3303H126.798Z" fill="#002947"/>
<path d="M135.868 53.1927H127.433V50.2569H135.868C137.047 50.2569 137.138 49.2477 137.228 48.9725C137.228 48.789 137.228 47.6881 136.049 47.5046L131.423 46.7707C128.793 46.3119 127.614 44.0184 127.705 42C127.886 39.6147 129.609 37.8716 131.968 37.8716H132.058H138.77V40.8074H132.058C130.789 40.8074 130.607 42 130.607 42.1835C130.607 42.4587 130.607 43.6514 131.877 43.8349L136.503 44.5688C139.042 45.0275 140.221 47.2294 140.131 49.156C139.949 51.4496 138.226 53.1009 135.958 53.1927H135.868Z" fill="#002947"/>
<path d="M63.8524 50.1652C59.3174 50.1652 55.5987 46.4037 55.5987 41.8165C55.5987 37.2294 59.3174 33.4679 63.8524 33.4679C67.7525 33.4679 71.0176 36.2202 71.8339 39.8899H74.827C73.92 34.5688 69.3851 30.5321 63.8524 30.5321C57.6848 30.5321 52.6963 35.578 52.6963 41.8165C52.6963 48.0551 57.6848 53.1009 63.8524 53.1009C69.2944 53.1009 73.92 49.0642 74.827 43.7431H71.8339C71.0176 47.4129 67.7525 50.1652 63.8524 50.1652Z" fill="#002947"/>
<path d="M33.8306 42L28.7514 50.9908H17.3232L22.4024 42H33.8306Z" fill="#91D1ED"/>
<path d="M33.8306 42H22.4024L17.3232 33.0092H28.7514L33.8306 42Z" fill="#75C5E9"/>
<path d="M22.4025 42L17.3233 50.9908L12.2441 42L17.3233 33.0092L22.4025 42Z" fill="#0093D6"/>
<path d="M39.5452 32L33.8311 42L28.752 33.0092L34.466 23.0092C34.5567 23.1009 34.5567 23.1927 34.6474 23.1927L39.5452 32Z" fill="#47B1E1"/>
<path d="M39.5451 52L34.5566 60.7156C34.5566 60.8073 34.4659 60.8991 34.3752 60.8991L28.6611 50.8991L33.7403 41.9082L39.5451 52Z" fill="#21A1DB"/>
<path d="M39.5451 32L33.8311 42L39.5451 52L44.5336 43.2844C44.9871 42.4587 44.9871 41.5413 44.5336 40.7156L39.5451 32Z" fill="#0093D6"/>
<path d="M5.35156 32H16.7797L22.4031 22H12.4261C11.5191 22 10.7029 22.4587 10.2494 23.2844L5.35156 32Z" fill="#C7E7F6"/>
<path d="M16.7797 52H5.35156L10.3401 60.7156C10.7936 61.5413 11.6098 62 12.5168 62H22.4938L16.7797 52Z" fill="#6EC1E8"/>
<path d="M32.3795 22H22.4026L16.6885 32H28.1167L33.6493 22.367C33.2865 22.0917 32.833 22 32.3795 22Z" fill="#ABDBF1"/>
<path d="M0 42C0 42.4587 0.0906998 42.9174 0.362799 43.2844L5.35129 52H16.7795L11.0654 42H0V42Z" fill="#54B7E4"/>
<path d="M16.7795 32H5.35129L0.362799 40.7156C0.0906998 41.0825 0 41.5413 0 42H11.0654L16.7795 32Z" fill="#ABDBF1"/>
<path d="M16.7793 52L22.4934 62H32.4704C32.9239 62 33.3774 61.9082 33.7402 61.633L28.1168 52H16.7793Z" fill="#54B7E4"/>
</g>
<line opacity="0.8" x1="173" y1="6.5" x2="197" y2="6.5" stroke="#002947"/>
<defs>
<clipPath id="clip0">
<rect width="197" height="40" fill="white" transform="translate(0 22)"/>
</clipPath>
</defs>
</svg>
