<?xml version="1.0" encoding="UTF-8"?>
<svg width="25px" height="24px" viewBox="0 0 25 24" version="1.1" xmlns="http://www.w3.org/2000/svg" xmlns:xlink="http://www.w3.org/1999/xlink">
    <title>63E11EF4-FA7D-454C-92DD-8960E3E9EDD5</title>
    <g id="Page-1" stroke="none" stroke-width="1" fill="none" fill-rule="evenodd">
        <g id="OCM-Website-1" transform="translate(-1347.000000, -27.000000)" fill="#FFFFFF" fill-rule="nonzero">
            <g id="github" transform="translate(1347.200000, 27.685714)">
                <path d="M11.7985,0.314285714 C5.173,0.314285714 -0.2,5.59343109 -0.2,12.1057472 C-0.2,17.3144257 3.238,21.7332877 8.008,23.2938359 C8.608,23.4024724 8.827,23.0383934 8.827,22.7256965 C8.827,22.445297 8.8165,21.7039264 8.8105,20.7203259 C5.473,21.4323353 4.768,19.1392248 4.768,19.1392248 C4.2235,17.7768647 3.436,17.4142538 3.436,17.4142538 C2.3455,16.6831597 3.517,16.6978403 3.517,16.6978403 C4.7215,16.7815198 5.3545,17.9133944 5.3545,17.9133944 C6.4255,19.7147045 8.164,19.1950111 8.848,18.8925907 C8.956,18.1306673 9.2665,17.6109739 9.61,17.3158938 C6.946,17.0178775 4.144,16.0063838 4.144,11.4891618 C4.144,10.2016728 4.612,9.14907349 5.38,8.32402352 C5.2555,8.02600725 4.8445,6.82660186 5.497,5.20439507 C5.497,5.20439507 6.505,4.88729401 8.797,6.41260882 C9.754,6.15129406 10.78,6.02063668 11.8015,6.0162325 C12.82,6.02210474 13.8475,6.15129406 14.806,6.41407688 C17.0965,4.88876207 18.103,5.20586313 18.103,5.20586313 C18.757,6.82953798 18.346,8.02747531 18.223,8.32549158 C18.9925,9.15054155 19.456,10.2031409 19.456,11.4906299 C19.456,16.0195964 16.651,17.0164094 13.978,17.3085535 C14.4085,17.6726325 14.7925,18.3919821 14.7925,19.4915594 C14.7925,21.0682563 14.7775,22.3395966 14.7775,22.7256965 C14.7775,23.0413295 14.9935,23.4083446 15.6025,23.2923679 C20.365,21.7303515 23.8,17.3129576 23.8,12.1057472 C23.8,5.59343109 18.427,0.314285714 11.7985,0.314285714 Z" id="Path"></path>
            </g>
        </g>
    </g>
</svg>