<?xml version="1.0" encoding="UTF-8"?>
<svg width="25px" height="24px" viewBox="0 0 25 24" version="1.1" xmlns="http://www.w3.org/2000/svg" xmlns:xlink="http://www.w3.org/1999/xlink">
    <title>02E8EABB-F987-44E8-BD60-98E6EC08B64F</title>
    <g id="Page-1" stroke="none" stroke-width="1" fill="none" fill-rule="evenodd">
        <g id="OCM-Website-1" transform="translate(-1443.000000, -27.000000)" fill="#FFFFFF" fill-rule="nonzero">
            <g id="slack" transform="translate(1443.485714, 27.000000)">
                <path d="M9.01428571,12 C7.63388111,12 6.51428571,13.1938668 6.51428571,14.6658442 L6.51428571,21.3341558 C6.51428571,22.8061332 7.63388111,24 9.01428571,24 C10.3946903,24 11.5142857,22.8061332 11.5142857,21.3341558 L11.5142857,14.6658442 C11.513294,13.1938668 10.3936986,12 9.01428571,12 Z" id="Path"></path>
                <path d="M-0.485714286,15.5 C-0.485714286,16.8803012 0.633984486,18 2.01428571,18 C3.39458694,18 4.51428571,16.8803012 4.51428571,15.5 L4.51428571,13 L2.01626748,13 C2.0152766,13 2.0152766,13 2.01428571,13 C0.633984486,13 -0.485714286,14.1196988 -0.485714286,15.5 Z" id="Path"></path>
                <path d="M9.01825082,0 C9.01725954,0 9.01626827,0 9.01527699,0 C7.63442846,0 6.51428571,1.11969877 6.51428571,2.5 C6.51428571,3.88030123 7.63442846,5 9.01527699,5 L11.5142857,5 C11.5142857,3.58204518 11.5142857,3.92687277 11.5142857,2.49504558 C11.5132944,1.11672612 10.3961255,0 9.01825082,0 Z" id="Path"></path>
                <path d="M2.17848846,11 L8.85008297,11 C10.3210439,11 11.5142857,9.88030123 11.5142857,8.5 C11.5142857,7.11969877 10.3210439,6 8.85008297,6 L2.17848846,6 C0.707527531,6 -0.485714286,7.11969877 -0.485714286,8.5 C-0.485714286,9.88030123 0.707527531,11 2.17848846,11 Z" id="Path"></path>
                <path d="M22.0103206,6 C20.6314546,6 19.5142857,7.11672612 19.5142857,8.49504558 L19.5142857,8.5 L19.5142857,11 L22.0132944,11 C23.394143,11 24.5142857,9.88030123 24.5142857,8.5 C24.5142857,7.11969877 23.394143,6 22.0132944,6 C22.0123032,6 22.0113119,6 22.0103206,6 L22.0103206,6 Z" id="Path"></path>
                <path d="M12.5142857,2.66138823 L12.5142857,9.33861177 C12.5142857,10.8081288 13.6338811,12 15.0142857,12 C16.3946903,12 17.5142857,10.8081288 17.5142857,9.33861177 L17.5142857,2.66138823 C17.5142857,1.19187121 16.3946903,0 15.0142857,0 C13.6338811,0 12.5142857,1.19187121 12.5142857,2.66138823 L12.5142857,2.66138823 Z" id="Path"></path>
                <path d="M17.5142857,21.5 C17.5142857,20.1195954 16.3946903,19 15.0142857,19 L12.5142857,19 L12.5142857,21.5019833 C12.5152774,22.8813963 13.6338811,24 15.0142857,24 C16.3946903,24 17.5142857,22.8804046 17.5142857,21.5 Z" id="Path"></path>
                <path d="M21.850083,13 L15.1784885,13 C13.7075275,13 12.5142857,14.1196988 12.5142857,15.5 C12.5142857,16.8803012 13.7075275,18 15.1784885,18 L21.850083,18 C23.3210439,18 24.5142857,16.8803012 24.5142857,15.5 C24.5142857,14.1196988 23.3210439,13 21.850083,13 L21.850083,13 Z" id="Path"></path>
            </g>
        </g>
    </g>
</svg>