<svg xmlns="http://www.w3.org/2000/svg" viewBox="0 0 856 856"><path fill="#FF2442" d="M145.425 16.318c25.458-8.921 51.283-12.453 77.87-12.413 140.66.21 281.333-.999 421.977.513 83.207.895 145.162 40.891 185.569 113.397 17.248 30.95 24.412 64.774 24.376 100.27-.145 141.327-.06 282.654-.06 423.98 0 103.217-73.669 191.229-175.35 209.044-11.747 2.058-23.817 3.177-35.74 3.195-141.826.216-283.653.165-425.48.127-59.952-.016-111.282-21.355-153.284-63.943-34.608-35.093-54.356-77.633-59.413-126.779-.731-7.107-1.002-14.29-1.005-21.44-.056-141.66-.042-283.32-.042-424.98 0-90.185 54.354-168.602 138.825-200.285.466-.175.93-.356 1.757-.686M637.68 328.832c-4.672.754-6.916-.935-6.146-5.916.226-1.465-.09-3.006.06-4.491.326-3.25-.982-4.387-4.28-4.331-9.995.168-19.995.06-29.993.06-9.112 0-9.378.01-9.054 9.298.16 4.599-1.444 5.66-5.714 5.471-7.41-.326-14.844-.09-22.152-.09v43.327h27.397v38.994h-29.246c-13.12 0-13.12 0-13.12 12.859 0 8.332-.02 16.664.014 24.995.007 1.758.206 3.515.334 5.56 12.388 0 24.204-.002 36.02.002 6.351.001 6.353.005 6.354 6.577v82.679h43.505v-88.521c1.048-.388 1.354-.6 1.66-.6 21.825-.03 43.651-.184 65.474.024 6.817.065 10.496 4.307 10.599 11.35.145 9.996.08 19.996.024 29.994-.036 6.572-1.803 8.328-8.313 8.348-11.664.036-23.329-.014-34.993.035-1.915.008-3.828.338-6.532.593 5.758 12.966 11.147 25.252 16.759 37.434.43.933 2.43 1.6 3.707 1.611 11.663.098 23.337.325 34.988-.068 21.356-.72 37.756-17.958 37.806-39.341.04-16.83.046-33.661-.002-50.491-.059-21.034-15.286-38.968-35.993-42.262-4.519-.718-9.134-.838-13.997-1.26 0-13.482.096-26.629-.022-39.773-.206-22.925-19.329-41.942-42.178-42.06-7.332-.038-14.664-.006-22.966-.007M534 334.614v-5.545h-98.062v43.173h25.704v128.596h-5.255c-9.83 0-19.663-.116-29.488.12-1.564.037-3.896 1.28-4.508 2.599-5.87 12.657-11.454 25.446-17.076 38.217-.233.53-.03 1.253-.03 2.002h142.851v-42.938c-12.73 0-25.041-.092-37.35.06-3.337.041-4.705-.763-4.695-4.43.114-39.988.106-79.977.01-119.965-.009-3.444.95-4.692 4.523-4.577 7.606.245 15.225.075 23.377.075v-37.387M232.849 493.497c0-57.994-.036-115.988.078-173.981.008-4.03-.947-5.568-5.246-5.458-10.992.28-22.007.389-32.989-.037-5.185-.2-6.391 1.399-6.376 6.422.173 58.327.11 116.654.11 174.98 0 1.334-.023 2.668-.003 4 .054 3.573-1.71 5.084-5.254 5.03-6.498-.1-12.999-.065-19.498-.002-1.75.017-3.498.336-5.928.587 5.733 12.937 11.114 25.232 16.718 37.425.432.939 2.428 1.603 3.713 1.63 5.994.124 12.004.183 17.99-.106 17.869-.863 33.306-14.765 35.88-32.565.805-5.564.566-11.28.805-17.925m110.513-136.663c-4.513 10.187-8.208 20.845-13.737 30.448-7.56 13.13-2.307 26.287 16.203 24.368 5.298-.55 10.702-.084 16.721-.084-1.018 2.395-1.574 3.755-2.17 5.098-7.018 15.79-14.108 31.55-21.04 47.378-4.438 10.135 1.471 19.08 12.527 19.112 16.494.046 32.99-.07 49.483.086 2.984.028 4.444-.948 5.582-3.641 3.494-8.273 7.268-16.427 10.897-24.643 1.516-3.433 2.941-6.906 4.698-11.046-2.364-.203-3.954-.443-5.546-.457-5.665-.048-11.33.002-16.994-.024-6.864-.031-8.114-1.91-5.344-8.165 8.544-19.295 17.131-38.57 25.681-57.862.705-1.59 1.256-3.248 2.144-5.568-11.499 0-22.137.035-32.776-.013-6.34-.028-7.865-2.329-5.337-8.035 6.393-14.434 12.853-28.838 19.244-43.273.768-1.734 1.281-3.581 2.117-5.96-2.165-.17-3.593-.378-5.022-.382-11.33-.027-22.662.146-33.986-.11-3.485-.08-4.94 1.299-6.213 4.248-5.47 12.672-11.157 25.25-17.132 38.525m-230.729 73.169c-1.764 14.504-3.58 29.002-5.214 43.52-.17 1.51.54 3.23 1.188 4.7 6.093 13.84 12.252 27.649 18.418 41.455.644 1.441 1.457 2.806 2.443 4.687 1.232-1.325 2.105-2.059 2.727-2.964 12.613-18.368 19.916-38.684 21.75-60.864 2.071-25.045 3.86-50.114 5.738-75.175.33-4.401.498-8.815.74-13.223h-43.447c-1.413 19.16-2.807 38.052-4.343 57.864m198.102 53.224c3.616-5.432 2.323-10.991 1.59-17.076-2.347-19.475-3.667-39.074-5.32-58.631-.991-11.742-1.865-23.493-2.793-35.265h-43.186c0 1.907-.099 3.402.014 4.88 2.078 27.21 4.142 54.419 6.29 81.622 1.736 21.978 8.467 42.286 20.674 60.706 1.043 1.573 2.316 2.993 4.15 5.338 6.356-14.284 12.28-27.596 18.58-41.574m34.766 60.937c10.665 0 21.333-.135 31.993.08 3.302.066 5.06-.871 6.39-3.997 4.823-11.322 9.965-22.507 14.939-33.765.7-1.585 1.136-3.288 1.77-5.162-22.795-2.186-45.253 2.665-67.41-3.828l-19.026 42.923c10.39 4.15 20.391 3.756 31.344 3.749m376.023-172.157c3.665-.004 7.337.129 10.994-.038 10.821-.493 19.68-9.415 20.324-20.329.633-10.738-7.039-20.778-17.249-22.573-11.496-2.02-23.27 4.35-25.046 15.285-1.44 8.857-.292 18.134-.292 27.655h11.27z"/><path fill="#FFFCFD" d="M638.165 328.832c7.817 0 15.149-.031 22.48.007 22.85.118 41.973 19.135 42.18 42.06.117 13.144.02 26.29.02 39.774 4.864.42 9.479.54 13.998 1.26 20.707 3.293 35.934 21.227 35.993 42.26.048 16.831.041 33.661.002 50.492-.05 21.383-16.45 38.62-37.806 39.34-11.651.394-23.325.167-34.988.07-1.277-.011-3.278-.68-3.707-1.612-5.612-12.182-11-24.468-16.759-37.434 2.704-.255 4.617-.585 6.532-.593 11.664-.05 23.329 0 34.993-.035 6.51-.02 8.277-1.776 8.313-8.348.055-9.998.121-19.998-.024-29.994-.103-7.043-3.782-11.285-10.599-11.35-21.823-.208-43.65-.054-65.475-.024-.305 0-.611.212-1.66.6v88.521h-43.504v-5.693-76.986c0-6.572-.003-6.576-6.354-6.577-11.816-.004-23.632-.001-36.02-.001-.128-2.046-.327-3.803-.334-5.56-.033-8.332-.015-16.664-.015-24.996 0-12.859 0-12.859 13.121-12.859h29.246V372.16h-27.397v-43.328c7.308 0 14.743-.235 22.152.091 4.27.188 5.874-.872 5.714-5.471-.324-9.289-.058-9.298 9.054-9.298 9.998 0 19.998.108 29.994-.06 3.297-.056 4.605 1.08 4.278 4.33-.149 1.486.167 3.027-.06 4.492-.769 4.98 1.475 6.67 6.632 5.916m21.266 60.676c-.01-3.654.619-7.47-.25-10.908-.612-2.423-3.093-5.986-5.025-6.178-7.33-.73-14.778-.294-22.152-.294v38.637h27.427v-21.257z"/><path fill="#FFFEFE" d="M534 335.101v36.9c-8.151 0-15.77.17-23.376-.075-3.574-.115-4.532 1.133-4.523 4.577.096 39.988.104 79.977-.01 119.964-.01 3.668 1.358 4.472 4.695 4.43 12.309-.15 24.62-.06 37.35-.06v42.94h-142.85c0-.75-.204-1.472.03-2.003 5.621-12.77 11.206-25.56 17.075-38.217.612-1.32 2.944-2.562 4.508-2.6 9.825-.235 19.658-.12 29.488-.12h5.255V372.243h-25.704v-43.173H534v6.032z"/><path fill="#FFFBFC" d="M232.849 493.996c-.239 6.146 0 11.862-.805 17.426-2.574 17.8-18.011 31.702-35.88 32.565-5.986.29-11.996.23-17.99.105-1.285-.026-3.281-.69-3.713-1.629-5.604-12.193-10.985-24.488-16.718-37.425 2.43-.25 4.178-.57 5.928-.587 6.499-.063 13-.098 19.498.002 3.544.054 5.308-1.457 5.254-5.03-.02-1.332.003-2.666.003-4 0-58.326.063-116.653-.11-174.98-.015-5.023 1.19-6.623 6.376-6.422 10.982.426 21.997.317 32.99.037 4.298-.11 5.253 1.427 5.245 5.458-.114 57.993-.078 115.987-.078 174.48z"/><path fill="#FFFDFD" d="M343.546 356.503c5.791-12.944 11.477-25.522 16.948-38.194 1.273-2.949 2.728-4.328 6.213-4.249 11.324.257 22.657.084 33.986.111 1.429.004 2.857.211 5.022.383-.836 2.378-1.349 4.225-2.117 5.96-6.391 14.434-12.85 28.838-19.244 43.272-2.528 5.706-1.002 8.007 5.337 8.035 10.639.048 21.277.013 32.776.013-.888 2.32-1.44 3.978-2.144 5.568-8.55 19.292-17.137 38.567-25.68 57.862-2.77 6.255-1.52 8.134 5.343 8.165 5.664.026 11.33-.024 16.994.024 1.592.014 3.182.254 5.546.457-1.757 4.14-3.182 7.613-4.698 11.046-3.629 8.216-7.403 16.37-10.897 24.643-1.138 2.693-2.598 3.67-5.582 3.641-16.493-.156-32.989-.04-49.483-.086-11.056-.031-16.965-8.977-12.527-19.112 6.932-15.828 14.022-31.587 21.04-47.378.596-1.343 1.152-2.703 2.17-5.098-6.02 0-11.423-.466-16.721.084-18.51 1.92-23.763-11.237-16.203-24.368 5.529-9.603 9.224-20.26 13.92-30.779zM112.704 429.543c1.465-19.352 2.859-38.244 4.272-57.404h43.447c-.242 4.408-.41 8.822-.74 13.223-1.878 25.06-3.667 50.13-5.738 75.175-1.834 22.18-9.137 42.496-21.75 60.864-.622.905-1.495 1.639-2.727 2.964-.986-1.88-1.8-3.246-2.443-4.687-6.166-13.806-12.325-27.616-18.418-41.455-.647-1.47-1.357-3.19-1.188-4.7 1.634-14.518 3.45-29.016 5.285-43.98zM310.547 483.56a18596.77 18596.77 0 00-18.393 41.24c-1.834-2.344-3.107-3.764-4.15-5.337-12.207-18.42-18.938-38.728-20.674-60.706-2.148-27.203-4.212-54.413-6.29-81.621-.113-1.48-.014-2.974-.014-4.881h43.186c.928 11.772 1.802 23.523 2.794 35.265 1.652 19.557 2.972 39.156 5.319 58.63.733 6.086 2.026 11.645-1.778 17.41z"/><path fill="#FFFEFE" d="M345 544.164c-10.453.007-20.453.401-30.844-3.75l19.026-42.922c22.157 6.493 44.615 1.642 67.41 3.828-.634 1.874-1.07 3.577-1.77 5.162-4.974 11.258-10.116 22.443-14.938 33.765-1.331 3.126-3.09 4.063-6.39 3.997-10.661-.215-21.329-.08-32.494-.08z"/><path fill="#FFFCFC" d="M721.03 372.007h-10.776c0-9.52-1.147-18.798.292-27.655 1.777-10.935 13.55-17.305 25.046-15.285 10.21 1.795 17.882 11.835 17.249 22.573-.644 10.914-9.503 19.836-20.324 20.33-3.657.166-7.329.033-11.487.037z"/><path fill="#FF2442" d="M659.431 390.007v20.758h-27.427v-38.637c7.374 0 14.821-.435 22.152.294 1.932.192 4.413 3.755 5.026 6.178.868 3.438.238 7.254.249 11.407z"/></svg>