<?xml version="1.0" encoding="UTF-8"?> <svg xmlns="http://www.w3.org/2000/svg" viewBox="0 0 400 245"><defs><style>.cls-1{fill:#007dc5;}.cls-2{fill:#fff;}.cls-3{fill:#231f20;}</style></defs><g id="内容"><path class="cls-1" d="M66.29336,98.259a2.39333,2.39333,0,0,1-1.76849-1.68566,5.49315,5.49315,0,0,1-.03825-2.68666c.82721-4.59176,1.56865-9.1975,2.64225-13.74943a28.83286,28.83286,0,0,1,4.3342-10.44451,12.21077,12.21077,0,0,1,6.65618-4.81825c4.62059-1.15613,6.542,3.35656,4.93684,7.18374-1.3546,3.22984-4.63,4.8713-7.03793,7.19315-4.40128,4.24389-5.77651,11.41167-7.04841,17.13632A2.27291,2.27291,0,0,1,66.29336,98.259Z"></path><path class="cls-1" d="M57.77333,92.40419a9.83117,9.83117,0,0,1-4.67129-1.138c-1.40034-.80112-3.24871-2.22866-4.98571-1.62362-1.90565.66395-2.64341,3.31163-4.12242,4.606-2.07991,1.82017-4.61157,2.81441-6.95459,4.21013a48.14979,48.14979,0,0,0-5.81716,4.02321,44.81265,44.81265,0,1,0,30.2384-10.028C60.22643,92.40166,58.98957,92.45031,57.77333,92.40419Z"></path><path class="cls-1" d="M27.00737,75.69873a6.73233,6.73233,0,0,1,2.02022-3.12262,4.39548,4.39548,0,0,1,6.14792.59075c3.65561,4.37143.88677,11.06748.74113,16.09892-.1227,4.23939,1.30185,8.6201,3.011,12.36522a8.32962,8.32962,0,0,1,.98714,2.29468,2.87475,2.87475,0,0,1-1.50533,3.0673c-1.82522.90281-2.991-1.01213-3.74345-2.37516a105.68405,105.68405,0,0,1-4.62286-9.84331,46.77806,46.77806,0,0,1-3.264-10.59964q-.16211-.98784-.262-1.98455-.08952-.9021-.12313-1.80853A13.5111,13.5111,0,0,1,27.00737,75.69873Z"></path><path class="cls-2" d="M101.01471,131.33041c-1.44252-16.70186-14.78042-30.22017-29.74981-30.1984-14.9234.02174-25.83155,13.5-24.4049,30.109,1.42682,16.61394,14.66088,30.14321,29.60016,30.21427C91.44572,161.52653,102.45766,148.03723,101.01471,131.33041Zm-7.80837,18.93574a20.55407,20.55407,0,0,1-14.812,6.95331,24.44719,24.44719,0,0,1-17.76793-7.32492,30.42492,30.42492,0,0,1-8.98059-18.761c-.76942-7.59938,1.40573-14.89174,5.99937-20.01884a20.54955,20.54955,0,0,1,14.84472-6.93607c.22183-.00659.445-.0098.66832-.00963a24.68184,24.68184,0,0,1,17.41912,7.70668,30.55517,30.55517,0,0,1,8.66818,18.60713A26.01382,26.01382,0,0,1,93.20634,150.26615Z"></path><path class="cls-3" d="M263.83522,121.81793c1.66936,2.77531,6.18047,8.30565,16.36,10.257l.85255-4.44732c-6.02209-1.15429-9.56681-3.70648-11.55611-5.80971H281.1974v-4.42314h-19.697V115.1126l18.19709-.00094v-4.2124H262.34166v-2.01034h16.16955v-4.10707H262.34166v-2.2207h16.16955V98.45408H262.34166V96.33866H279.6975V92.12631H262.97875v0a8.28582,8.28582,0,0,0,2.52622-2.43993c.52243-.82914.80013-1.33283.82687-1.38216L262.172,86.034a24.34566,24.34566,0,0,1-1.55517,2.45246c-2.15709,3-4.04712,3.63979-7.32672,3.63979v0h-5.24745a41.06209,41.06209,0,0,0,2.46791-3.82209l-4.15986-2.27016a54.385,54.385,0,0,1-11.77318,13.71477l3.0421,3.63337c.79217-.66314,1.53455-1.3303,2.25237-1.99622v9.24978c0,3.0347,1.44333,4.47791,4.478,4.4777l12.41146-.00065v2.282H237.064v4.42314h11.70571c-1.98929,2.10323-5.534,4.65542-11.55606,5.80971l.85246,4.44732c10.17968-1.95138,14.69066-7.48172,16.36-10.257h2.33532V132.5446h4.73893V121.81793Zm-6.23245-17.03608H244.50566v-2.2207h13.09711Zm0-8.44319v2.11542H244.50566v-1.851c.07757-.08938.14949-.1758.22555-.26445Zm-13.09711,13.66506v-1.1148h13.09711v2.01034H245.4012C244.62571,110.89926,244.50566,110.77917,244.50566,110.00372Z"></path><path class="cls-3" d="M176.03041,125.05676c.99955-2.7309,1.13376-8.84527,1.13376-14.56527V108.438h-6.33334l1.28393-19.48085H151.4356v4.42293h15.61927l-.97529,15.05792h-8.08621l.89866-12.66967H154.35l-1.24161,17.0926H172.4145c-.05712,5.65779-.33684,8.99719-.83411,10.35624-.709,1.937-1.94967,4.09672-6.70285,4.09672h-7.40475v4.52826h7.61537C170.859,131.84218,174.33606,129.68612,176.03041,125.05676Z"></path><path class="cls-3" d="M150.94145,127.98005v-5.64491h16.37623v-4.73889H150.9352v4.668h-4.73264v4.62846h-3.77583V118.9414h2.17a5.08045,5.08045,0,0,0,5.398-5.39758V93.53627h-7.568V87.22035h-4.73889v6.31592h-7.35761V118.9414h7.35761v7.95127h-7.45122v4.94955h16.84274A3.55611,3.55611,0,0,0,150.94145,127.98005ZM145.2559,98.16983v15.47933a.65976.65976,0,0,1-.65917.65869h-2.17v-16.138Zm-10.18678,16.138v-16.138h2.61872v16.138Z"></path><path class="cls-3" d="M333.05,124.0875V88.42H290.13889v44.14266h34.43659C330.09105,132.56261,333.05,129.60308,333.05,124.0875Zm-4.73893,0a3.43154,3.43154,0,0,1-3.73562,3.73622H294.87773V93.1588H328.3111Z"></path><path class="cls-3" d="M297.55211,116.52671l1.64643,4.44373a40.25937,40.25937,0,0,0,17.5369-12.91947v8.97075a3.48469,3.48469,0,0,1-3.60042,3.3474h-4.25711v4.52831h4.67831c4.59856,0,7.91811-3.20648,7.91811-7.66509V105.44927h3.439v-4.528h-3.439V96.05381h-4.73889v4.86741H298.37535v4.528H313.046A37.75963,37.75963,0,0,1,297.55211,116.52671Z"></path><path class="cls-3" d="M231.46994,129.062a101.3134,101.3134,0,0,1-11.22932-10.64884,47.1728,47.1728,0,0,0,4.28971-6.78829c3.21225-6.23164,3.48119-12.90129,3.48119-19.19822h-4.94969c0,5.68962-.22628,11.68317-2.93095,16.93062a41.45742,41.45742,0,0,1-3.079,5.0296,41.48062,41.48062,0,0,1-3.0792-5.0296c-2.704-5.24693-2.93039-11.241-2.93039-16.93062h-4.9496c0,6.02132.26885,12.96658,3.48059,19.19822a47.19945,47.19945,0,0,0,4.28975,6.78825,93.61762,93.61762,0,0,1-9.65088,9.31011v-5.459h-4.7388v4.62846h-3.77584V118.9414h2.16988a5.08042,5.08042,0,0,0,5.3981-5.39758V93.53627h-7.568V87.22035h-4.73889v6.31592h-7.35773V118.9414h7.35773v7.95127H183.5073v4.94955H200.35a3.63886,3.63886,0,0,0,3.28131-1.59222l2.1846,2.60259a109.79279,109.79279,0,0,0,11.236-10.57529,109.73457,109.73457,0,0,0,11.23625,10.57529ZM198.52662,98.16983v15.47933a.65971.65971,0,0,1-.65921.65869h-2.16988v-16.138Zm-10.18678,16.138v-16.138h2.6188v16.138Z"></path><path class="cls-3" d="M215.382,101.20534l3.89032-.49748a114.73582,114.73582,0,0,0-1.03373-13.82746l-4.69063.67875c.00171.01066.02884.20309.07017.51772A115.396,115.396,0,0,1,215.382,101.20534Z"></path><path class="cls-3" d="M374.46884,142.3844H360.87947v30.44795a12.50927,12.50927,0,0,0,2.67631.26646,12.79157,12.79157,0,0,0,2.67639-.26646v-9.84913h8.41906c6.32217,0,10.58573-4.08375,10.58573-10.41465C385.237,146.23717,381.03419,142.3844,374.46884,142.3844Zm-.89181,15.8429h-7.34486V147.14053H373.577c4.59492,0,6.57335,1.51239,6.57335,5.56735S377.68563,158.2273,373.577,158.2273Z"></path><path class="cls-3" d="M282.93992,162.2106c-1.59967-1.26784-3.01306-1.507-2.9692-1.82133.03756-.269.78828-.14739,2.1253-.54767,4.14116-1.19643,6.593-4.30352,6.593-8.37816,0-7.16688-4.96166-9.11861-12.1285-9.11861H263.39734v30.50361a12.349,12.349,0,0,0,2.65919.2665,12.62341,12.62341,0,0,0,2.65928-.2665V161.26851H272.138c2.44036.00312,4.27384.30855,5.588,1.30647a17.83908,17.83908,0,0,1,4.01106,4.85064c.86615,1.351,3.01909,5.41409,3.02431,5.42243l-.01588.00039a17.01774,17.01774,0,0,0,3.13191.2665,10.33757,10.33757,0,0,0,3.03616-.415s-3.19561-5.149-4.57341-6.90261A20.91354,20.91354,0,0,0,282.93992,162.2106Zm-7.23692-5.48084h-6.98719v-9.90347h7.93244c4.59416,0,6.73554.90055,6.73554,4.63715C283.38379,155.43685,280.29707,156.72976,275.703,156.72976Z"></path><path class="cls-3" d="M349.34741,142.3844h.02015v18.09613c0,4.90523-2.9001,8.01073-7.6944,8.01073s-7.69448-3.1055-7.69448-8.01073V142.3844a12.49255,12.49255,0,0,0-2.67631-.26658,12.77571,12.77571,0,0,0-2.67635.26658h.0202v18.2789c0,8.91081,5.71439,12.81132,13.02694,12.81132s13.02691-3.90051,13.02691-12.81132V142.3844a12.49359,12.49359,0,0,0-2.67631-.26658A12.77571,12.77571,0,0,0,349.34741,142.3844Z"></path><path class="cls-3" d="M243.31877,146.67937a11.6408,11.6408,0,0,1,10.18567,5.25764l3.92788-2.89112c-3.52517-4.86549-7.37031-7.24257-14.54134-7.24257-8.756,0-15.51394,6.75591-15.51394,15.89955,0,9.19211,6.49343,15.7714,14.53664,15.7714a15.5907,15.5907,0,0,0,6.041-1.219,16.86363,16.86363,0,0,0,3.48495-1.81812c.42458-.28823.92066-.62853,1.24085-.51314.272.098.29092.39587.29092.72526,0,.96891.00719,2.124.00719,2.124v.001a7.32189,7.32189,0,0,0,2.031.26645,6.07789,6.07789,0,0,0,2.03563-.339l-.0095-.00163-.00475-16.25691H243.36733V160.785H252.342c-.02409,3.2588-2.96963,7.81317-9.70153,7.81317-6.35456,0-10.07062-5.04637-10.07062-10.89527A10.81164,10.81164,0,0,1,243.31877,146.67937Z"></path><path class="cls-3" d="M308.28374,141.80324a15.83548,15.83548,0,1,0,15.83562,15.83562A15.83543,15.83543,0,0,0,308.28374,141.80324Zm.00214,26.3805a10.54488,10.54488,0,1,1,10.545-10.54488A10.54485,10.54485,0,0,1,308.28588,168.18374Z"></path><path class="cls-3" d="M190.87188,147.24925h11.06478V172.817a13.9868,13.9868,0,0,0,2.83418.26654,14.30207,14.30207,0,0,0,2.83413-.26654V147.24925h11.06482V142.3311H190.87188Z"></path><path class="cls-3" d="M181.11888,142.30787v22.12031a193.75174,193.75174,0,0,0-15.58534-22.12036h-.0003a12.063,12.063,0,0,0-2.62352-.26654,12.295,12.295,0,0,0-2.62372.26659v30.50921h.00034a11.91161,11.91161,0,0,0,2.60982.26641,12.17815,12.17815,0,0,0,2.60978-.26641h.00039V149.17937c5.57594,7.67557,10.81509,15.59146,15.52258,23.63771h.01022a12.259,12.259,0,0,0,2.64974.26641,12.54477,12.54477,0,0,0,2.64991-.26641h.00038V142.30787a11.89906,11.89906,0,0,0-2.61016-.26659A12.1706,12.1706,0,0,0,181.11888,142.30787Z"></path><path class="cls-3" d="M156.37206,172.599l-.1841-.65788c-.06255-.21892-.13113-.43626-.19655-.65445l-.7932-2.61539-.3981-1.30707-.42406-1.29928-.84835-2.59827c-.29208-.86307-.59841-1.72164-.897-2.58257l-.45055-1.29039c-.14978-.43035-.31484-.85549-.47155-1.2835l-.952-2.56348c-1.3146-3.40234-2.705-6.77679-4.21406-10.10622-.37868-.83179-.755-1.6644-1.15421-2.4887l-.44-.92293h-7.185l-.4517.96139c-.39378.82541-.76522,1.65862-1.14035,2.49067-1.49266,3.331-2.87533,6.70315-4.18779,10.10095l-.95407,2.55887c-.15672.42728-.32267.85152-.472,1.28123l-.45367,1.28748c-.30038.859-.60906,1.71544-.9026,2.57675l-.85862,2.591-.42911,1.29573-.40495,1.30305-.80813,2.60695c-.13785.4337-.26431.87047-.389,1.30789l-.06516.22619-.00077.0027a12.95818,12.95818,0,0,0,2.70313.26444,13.34237,13.34237,0,0,0,2.72821-.267l.0166-.0563.762-2.558.38175-1.27892.40563-1.27114,1.054-3.18324a34.24762,34.24762,0,0,1,7.05055-.25721,25.47222,25.47222,0,0,1,6.61429,1.45437c.68672.31394.99488.49813,1.21227,1.0117l.29511.93986.3999,1.272.37431,1.28016.74588,2.56088.02392.08116.01852.00466a12.02958,12.02958,0,0,0,2.71435.267,13.30437,13.30437,0,0,0,2.68909-.2614l-.00171-.00574Zm-15.00289-12.258a22.51762,22.51762,0,0,0-5.95274.90072c.0904-.25195.27869-.92643.36815-1.17872l.9038-2.50962c1.24452-3.33034,2.5569-6.6347,3.9717-9.88837q.11969-.27358.2392-.54741c.148-.344.30573-.44662.46633-.44662.149,0,.29564.091.4343.37923q.13135.29668.26226.59358c1.42759,3.24515,2.74493,6.545,3.9889,9.87309l.90016,2.50907c.09365.26521.18953.52961.28408.79453A29.39287,29.39287,0,0,0,141.36917,160.34092Z"></path></g></svg> 